<mxfile host="app.diagrams.net" modified="2020-07-11T16:59:05.015Z" agent="5.0 (Macintosh; Intel Mac OS X 10_15_5) AppleWebKit/537.36 (KHTML, like Gecko) Chrome/83.0.4103.116 Safari/537.36" etag="3FkdiFKPcqz3UnkBcjLm" version="13.4.0" type="github">
  <diagram id="wr9Klig08tz31e96zgJG" name="Page-1">
    <mxGraphModel dx="2066" dy="1105" grid="1" gridSize="10" guides="1" tooltips="1" connect="1" arrows="1" fold="1" page="1" pageScale="1" pageWidth="827" pageHeight="1169" math="0" shadow="0">
      <root>
        <mxCell id="0" />
        <mxCell id="1" parent="0" />
        <mxCell id="nZHn6ieUkOkDJYo_L3ya-1" value="User Space Processes" style="rounded=0;whiteSpace=wrap;html=1;fillColor=#dae8fc;strokeColor=#6c8ebf;" vertex="1" parent="1">
          <mxGeometry x="220" y="300" width="350" height="60" as="geometry" />
        </mxCell>
        <mxCell id="nZHn6ieUkOkDJYo_L3ya-2" value="" style="rounded=0;whiteSpace=wrap;html=1;fillColor=#d5e8d4;strokeColor=#82b366;" vertex="1" parent="1">
          <mxGeometry x="220" y="360" width="350" height="170" as="geometry" />
        </mxCell>
        <mxCell id="nZHn6ieUkOkDJYo_L3ya-3" value="Memory Management" style="text;html=1;strokeColor=none;fillColor=none;align=center;verticalAlign=middle;whiteSpace=wrap;rounded=0;" vertex="1" parent="1">
          <mxGeometry x="260" y="410" width="40" height="20" as="geometry" />
        </mxCell>
        <mxCell id="nZHn6ieUkOkDJYo_L3ya-4" value="Device Drivers" style="text;html=1;strokeColor=none;fillColor=none;align=center;verticalAlign=middle;whiteSpace=wrap;rounded=0;" vertex="1" parent="1">
          <mxGeometry x="375" y="490" width="40" height="20" as="geometry" />
        </mxCell>
        <mxCell id="nZHn6ieUkOkDJYo_L3ya-5" value="CPU scheduler&lt;br&gt;" style="text;html=1;strokeColor=none;fillColor=none;align=center;verticalAlign=middle;whiteSpace=wrap;rounded=0;" vertex="1" parent="1">
          <mxGeometry x="420" y="410" width="40" height="20" as="geometry" />
        </mxCell>
        <mxCell id="nZHn6ieUkOkDJYo_L3ya-6" value="File management" style="text;html=1;strokeColor=none;fillColor=none;align=center;verticalAlign=middle;whiteSpace=wrap;rounded=0;" vertex="1" parent="1">
          <mxGeometry x="500" y="410" width="40" height="20" as="geometry" />
        </mxCell>
        <mxCell id="nZHn6ieUkOkDJYo_L3ya-7" value="Networking&amp;nbsp;&lt;br&gt;Stack" style="text;html=1;strokeColor=none;fillColor=none;align=center;verticalAlign=middle;whiteSpace=wrap;rounded=0;" vertex="1" parent="1">
          <mxGeometry x="350" y="400" width="40" height="40" as="geometry" />
        </mxCell>
        <mxCell id="nZHn6ieUkOkDJYo_L3ya-9" value="System Call Interface" style="text;html=1;strokeColor=none;fillColor=none;align=center;verticalAlign=middle;whiteSpace=wrap;rounded=0;" vertex="1" parent="1">
          <mxGeometry x="317" y="360" width="156" height="40" as="geometry" />
        </mxCell>
        <mxCell id="nZHn6ieUkOkDJYo_L3ya-10" value="Inter process &lt;br&gt;communication&amp;nbsp;" style="text;html=1;strokeColor=none;fillColor=none;align=center;verticalAlign=middle;whiteSpace=wrap;rounded=0;" vertex="1" parent="1">
          <mxGeometry x="342" y="440" width="106" height="40" as="geometry" />
        </mxCell>
        <mxCell id="nZHn6ieUkOkDJYo_L3ya-11" value="" style="shape=curlyBracket;whiteSpace=wrap;html=1;rounded=1;" vertex="1" parent="1">
          <mxGeometry x="190" y="360" width="20" height="170" as="geometry" />
        </mxCell>
        <mxCell id="nZHn6ieUkOkDJYo_L3ya-12" value="&lt;font style=&quot;font-size: 16px&quot;&gt;kernel Space&lt;/font&gt;" style="text;html=1;align=center;verticalAlign=middle;resizable=0;points=[];autosize=1;rotation=270;" vertex="1" parent="1">
          <mxGeometry x="110" y="440" width="110" height="20" as="geometry" />
        </mxCell>
      </root>
    </mxGraphModel>
  </diagram>
</mxfile>
